<svg width="206" height="33" viewBox="0 0 206 33" fill="none" xmlns="http://www.w3.org/2000/svg">
<mask id="mask0_5_102" style="mask-type:luminance" maskUnits="userSpaceOnUse" x="5" y="0" width="32" height="33">
<path d="M33.9871 22.8196C32.778 21.5155 29.5682 19.866 26.5659 18.5065C23.1054 16.9401 20.4729 14.1008 19.02 10.3684C17.7595 7.12951 16.2308 3.66822 15.0211 2.36347C12.5095 -0.345391 8.85093 -0.791572 6.84959 1.367C4.84825 3.52557 5.26193 7.47158 7.77411 10.1804C8.98319 11.4845 12.193 13.134 15.1953 14.4935C18.6558 16.0599 21.2883 18.8992 22.7412 22.6316C24.0017 25.8705 25.5304 29.3318 26.7402 30.6365C29.2517 33.3454 32.9103 33.7916 34.9116 31.633C36.913 29.4744 36.4993 25.5291 33.9871 22.8196Z" fill="white"/>
</mask>
<g mask="url(#mask0_5_102)">
<path d="M20.8803 -18.0811L-11.1825 16.5014L20.8803 51.0838L52.9438 16.5014L20.8803 -18.0811Z" fill="url(#paint0_linear_5_102)"/>
</g>
<mask id="mask1_5_102" style="mask-type:luminance" maskUnits="userSpaceOnUse" x="0" y="10" width="22" height="23">
<path d="M0 10.221H21.0677V32.8925H0V10.221Z" fill="white"/>
</mask>
<g mask="url(#mask1_5_102)">
<mask id="mask2_5_102" style="mask-type:luminance" maskUnits="userSpaceOnUse" x="0" y="10" width="21" height="23">
<path d="M0.0419922 10.3508C0.0419922 10.3508 4.59625 26.4857 7.85744 30.0031C11.1186 33.5212 16.0922 33.8599 18.9654 30.7609C21.8386 27.662 21.5246 22.2983 18.2628 18.7803C15.0016 15.2629 0.0419922 10.3508 0.0419922 10.3508Z" fill="white"/>
</mask>
<g mask="url(#mask2_5_102)">
<path d="M10.9406 -1.40405L-10.8566 22.1057L10.9406 45.6147L32.7373 22.1057L10.9406 -1.40405Z" fill="url(#paint1_linear_5_102)"/>
</g>
</g>
<mask id="mask3_5_102" style="mask-type:luminance" maskUnits="userSpaceOnUse" x="20" y="0" width="22" height="24">
<path d="M20.9072 0.702515H42V23.374H20.9072V0.702515Z" fill="white"/>
</mask>
<g mask="url(#mask3_5_102)">
<mask id="mask4_5_102" style="mask-type:luminance" maskUnits="userSpaceOnUse" x="21" y="0" width="21" height="24">
<path d="M41.9323 23.2516C41.9323 23.2516 26.9727 18.3395 23.7115 14.8221C20.4503 11.3041 20.1357 5.94042 23.0089 2.84148C25.8827 -0.258131 30.8556 0.081238 34.1168 3.59864C37.3786 7.11671 41.9323 23.2516 41.9323 23.2516Z" fill="white"/>
</mask>
<g mask="url(#mask4_5_102)">
<path d="M31.0343 -12.0123L9.23703 11.4967L31.0343 35.0065L52.8309 11.4967L31.0343 -12.0123Z" fill="url(#paint2_linear_5_102)"/>
</g>
</g>
<path d="M64.692 23.036C64.692 23.5213 64.8047 23.8593 65.03 24.05C65.2727 24.2407 65.6713 24.336 66.226 24.336C66.226 24.648 66.174 24.9513 66.07 25.246C65.966 25.5407 65.8273 25.792 65.654 26H59.336C59.1627 25.792 59.024 25.5407 58.92 25.246C58.816 24.9513 58.764 24.648 58.764 24.336C59.336 24.336 59.7347 24.2407 59.96 24.05C60.2027 23.8593 60.324 23.5213 60.324 23.036V17.862H54.604V23.036C54.604 23.5213 54.7167 23.8593 54.942 24.05C55.1847 24.2407 55.592 24.336 56.164 24.336C56.164 24.648 56.112 24.9513 56.008 25.246C55.904 25.5407 55.7653 25.792 55.592 26H49.248C49.0747 25.792 48.936 25.5407 48.832 25.246C48.728 24.9513 48.676 24.648 48.676 24.336C49.248 24.336 49.6467 24.2407 49.872 24.05C50.1147 23.8593 50.236 23.5213 50.236 23.036V10.816C50.236 10.3307 50.1147 9.99267 49.872 9.802C49.6467 9.594 49.248 9.49 48.676 9.49C48.676 9.19533 48.728 8.90067 48.832 8.606C48.936 8.31133 49.0747 8.06 49.248 7.852H55.592C55.7653 8.06 55.904 8.31133 56.008 8.606C56.112 8.90067 56.164 9.19533 56.164 9.49C55.592 9.49 55.1847 9.594 54.942 9.802C54.7167 9.99267 54.604 10.3307 54.604 10.816V15.678H60.324V10.816C60.324 10.3307 60.2027 9.99267 59.96 9.802C59.7173 9.594 59.3187 9.49 58.764 9.49C58.764 9.19533 58.816 8.90067 58.92 8.606C59.024 8.31133 59.1627 8.06 59.336 7.852H65.654C65.8273 8.06 65.966 8.31133 66.07 8.606C66.174 8.90067 66.226 9.19533 66.226 9.49C65.6713 9.49 65.2727 9.594 65.03 9.802C64.8047 9.99267 64.692 10.3307 64.692 10.816V23.036ZM80.2026 22.958C80.2026 23.374 80.3066 23.7207 80.5146 23.998C80.74 24.2753 81.052 24.4313 81.4506 24.466V25.194C81.1733 25.506 80.74 25.7487 80.1506 25.922C79.5786 26.0953 78.998 26.182 78.4086 26.182C77.8193 26.182 77.3166 26.026 76.9006 25.714C76.4846 25.402 76.2073 24.9687 76.0686 24.414C75.2366 25.5927 74.0493 26.182 72.5066 26.182C71.2933 26.182 70.3486 25.8093 69.6726 25.064C68.9966 24.3187 68.6586 23.3133 68.6586 22.048V14.898C68.6586 14.6033 68.546 14.3953 68.3206 14.274C68.1126 14.1527 67.8006 14.092 67.3846 14.092V12.948C67.6446 12.74 68.1386 12.532 68.8666 12.324C69.612 12.116 70.4006 12.012 71.2326 12.012C71.718 12.012 72.0733 12.0467 72.2986 12.116C72.524 12.168 72.68 12.2893 72.7666 12.48C72.8533 12.6707 72.8966 12.974 72.8966 13.39V22.126C72.8966 22.6633 72.9833 23.0707 73.1566 23.348C73.3473 23.608 73.6506 23.738 74.0666 23.738C74.4133 23.738 74.7513 23.634 75.0806 23.426C75.4273 23.2007 75.722 22.932 75.9646 22.62V14.898C75.9646 14.3607 75.4793 14.092 74.5086 14.092V12.948C74.786 12.7227 75.2886 12.5147 76.0166 12.324C76.762 12.116 77.5766 12.012 78.4606 12.012C79.1713 12.012 79.6393 12.0987 79.8646 12.272C80.09 12.428 80.2026 12.8007 80.2026 13.39V22.958ZM97.1615 25.298C96.9015 25.558 96.4335 25.766 95.7575 25.922C95.0989 26.078 94.4662 26.156 93.8595 26.156C93.1142 26.156 92.5595 26.0173 92.1955 25.74C91.8489 25.4627 91.6755 25.0207 91.6755 24.414V16.302C91.6755 15.626 91.5282 15.1407 91.2335 14.846C90.9389 14.5513 90.5489 14.404 90.0635 14.404C89.3529 14.404 88.7549 14.69 88.2695 15.262V23.192C88.2695 23.6947 88.3735 24.0587 88.5815 24.284C88.8069 24.5093 89.1795 24.622 89.6995 24.622C89.6995 25.142 89.5002 25.6013 89.1015 26H83.1995C82.7835 25.584 82.5755 25.1247 82.5755 24.622C83.0955 24.622 83.4682 24.5093 83.6935 24.284C83.9189 24.0587 84.0315 23.6947 84.0315 23.192V15.6C84.0315 15.132 83.9015 14.8027 83.6415 14.612C83.3815 14.404 82.9309 14.3 82.2895 14.3V13.13C82.8442 12.818 83.6242 12.532 84.6295 12.272C85.6522 12.012 86.4235 11.882 86.9435 11.882C87.3422 11.882 87.6455 12.012 87.8535 12.272C88.0789 12.5147 88.2089 12.9827 88.2435 13.676C88.6942 13.1213 89.2575 12.688 89.9335 12.376C90.6095 12.0467 91.3722 11.882 92.2215 11.882C93.4695 11.882 94.3882 12.2027 94.9775 12.844C95.5842 13.468 95.8875 14.4993 95.8875 15.938V23.036C95.8875 23.8853 96.3035 24.388 97.1355 24.544L97.1615 25.298ZM112.12 25.35C111.877 25.662 111.513 25.9047 111.028 26.078C110.543 26.2513 110.023 26.338 109.468 26.338C108.965 26.338 108.471 26.2253 107.986 26C107.501 25.792 107.163 25.4973 106.972 25.116C106.625 25.5667 106.192 25.8787 105.672 26.052C105.169 26.2427 104.537 26.338 103.774 26.338C102.803 26.338 101.911 26.0953 101.096 25.61C100.281 25.1073 99.6227 24.3707 99.1201 23.4C98.6347 22.412 98.3921 21.2073 98.3921 19.786C98.3921 18.1047 98.7041 16.6747 99.3281 15.496C99.9694 14.3173 100.81 13.4333 101.85 12.844C102.89 12.2547 104.034 11.96 105.282 11.96C105.577 11.96 106.105 11.9947 106.868 12.064L106.79 10.504V9.204C106.79 8.77067 106.669 8.45 106.426 8.242C106.183 8.034 105.724 7.93 105.048 7.93V6.864C105.655 6.53467 106.443 6.24 107.414 5.98C108.385 5.72 109.147 5.59 109.702 5.59C110.101 5.59 110.387 5.68533 110.56 5.876C110.751 6.04933 110.846 6.35267 110.846 6.786V23.114C110.846 23.9633 111.262 24.466 112.094 24.622L112.12 25.35ZM105.568 24.128C106.105 24.128 106.513 23.972 106.79 23.66V14.56C106.426 14.0573 105.941 13.806 105.334 13.806C104.571 13.806 103.956 14.2047 103.488 15.002C103.037 15.7993 102.812 17.0907 102.812 18.876C102.812 20.592 103.063 21.9007 103.566 22.802C104.086 23.686 104.753 24.128 105.568 24.128ZM121.959 11.882C122.739 11.882 123.311 12.0813 123.675 12.48C124.039 12.8787 124.221 13.4247 124.221 14.118C124.221 14.8633 124.021 15.47 123.623 15.938C123.241 16.406 122.721 16.64 122.063 16.64C121.491 16.64 121.023 16.4753 120.659 16.146C120.312 15.8167 120.139 15.4267 120.139 14.976C120.139 14.6987 120.165 14.482 120.217 14.326C119.593 14.482 119.064 14.7507 118.631 15.132V22.932C118.631 23.3653 118.691 23.6947 118.813 23.92C118.934 24.1453 119.168 24.3187 119.515 24.44C119.879 24.544 120.416 24.596 121.127 24.596C121.127 24.908 121.092 25.1767 121.023 25.402C120.953 25.61 120.823 25.8093 120.633 26H113.691C113.292 25.6013 113.093 25.1333 113.093 24.596C113.595 24.596 113.951 24.492 114.159 24.284C114.384 24.0587 114.497 23.686 114.497 23.166V15.652C114.497 15.184 114.367 14.8547 114.107 14.664C113.864 14.4733 113.422 14.378 112.781 14.378V13.208C113.353 12.8787 114.107 12.5927 115.043 12.35C115.996 12.09 116.733 11.96 117.253 11.96C117.669 11.96 117.963 12.1073 118.137 12.402C118.31 12.6967 118.397 13.286 118.397 14.17C118.709 13.5807 119.203 13.052 119.879 12.584C120.555 12.116 121.248 11.882 121.959 11.882ZM132.416 23.348C133.508 23.348 134.522 23.0013 135.458 22.308C135.596 22.4467 135.718 22.6547 135.822 22.932C135.926 23.2093 135.978 23.452 135.978 23.66C135.978 23.972 135.77 24.336 135.354 24.752C134.938 25.1507 134.357 25.4973 133.612 25.792C132.884 26.0867 132.06 26.234 131.142 26.234C129.859 26.234 128.732 25.9567 127.762 25.402C126.808 24.8473 126.072 24.0413 125.552 22.984C125.032 21.9267 124.772 20.6787 124.772 19.24C124.772 17.7667 125.049 16.4753 125.604 15.366C126.176 14.2567 126.956 13.4073 127.944 12.818C128.932 12.2113 130.05 11.908 131.298 11.908C132.875 11.908 134.132 12.3673 135.068 13.286C136.004 14.2047 136.472 15.4787 136.472 17.108C136.472 17.8707 136.35 18.4773 136.108 18.928C135.865 19.3613 135.432 19.578 134.808 19.578H129.192C129.296 22.0913 130.37 23.348 132.416 23.348ZM131.142 13.702C130.604 13.702 130.154 14.0053 129.79 14.612C129.426 15.2013 129.226 16.198 129.192 17.602H131.818C132.095 17.602 132.277 17.5067 132.364 17.316C132.45 17.1253 132.494 16.8307 132.494 16.432C132.494 15.4093 132.372 14.6987 132.13 14.3C131.887 13.9013 131.558 13.702 131.142 13.702ZM151.602 25.35C151.36 25.662 150.996 25.9047 150.51 26.078C150.025 26.2513 149.505 26.338 148.95 26.338C148.448 26.338 147.954 26.2253 147.468 26C146.983 25.792 146.645 25.4973 146.454 25.116C146.108 25.5667 145.674 25.8787 145.154 26.052C144.652 26.2427 144.019 26.338 143.256 26.338C142.286 26.338 141.393 26.0953 140.578 25.61C139.764 25.1073 139.105 24.3707 138.602 23.4C138.117 22.412 137.874 21.2073 137.874 19.786C137.874 18.1047 138.186 16.6747 138.81 15.496C139.452 14.3173 140.292 13.4333 141.332 12.844C142.372 12.2547 143.516 11.96 144.764 11.96C145.059 11.96 145.588 11.9947 146.35 12.064L146.272 10.504V9.204C146.272 8.77067 146.151 8.45 145.908 8.242C145.666 8.034 145.206 7.93 144.53 7.93V6.864C145.137 6.53467 145.926 6.24 146.896 5.98C147.867 5.72 148.63 5.59 149.184 5.59C149.583 5.59 149.869 5.68533 150.042 5.876C150.233 6.04933 150.328 6.35267 150.328 6.786V23.114C150.328 23.9633 150.744 24.466 151.576 24.622L151.602 25.35ZM145.05 24.128C145.588 24.128 145.995 23.972 146.272 23.66V14.56C145.908 14.0573 145.423 13.806 144.816 13.806C144.054 13.806 143.438 14.2047 142.97 15.002C142.52 15.7993 142.294 17.0907 142.294 18.876C142.294 20.592 142.546 21.9007 143.048 22.802C143.568 23.686 144.236 24.128 145.05 24.128ZM182.511 23.348C183.603 23.348 184.617 23.0013 185.553 22.308C185.692 22.4467 185.813 22.6547 185.917 22.932C186.021 23.2093 186.073 23.452 186.073 23.66C186.073 23.972 185.865 24.336 185.449 24.752C185.033 25.1507 184.453 25.4973 183.707 25.792C182.979 26.0867 182.156 26.234 181.237 26.234C179.955 26.234 178.828 25.9567 177.857 25.402C176.904 24.8473 176.167 24.0413 175.647 22.984C175.127 21.9267 174.867 20.6787 174.867 19.24C174.867 17.7667 175.145 16.4753 175.699 15.366C176.271 14.2567 177.051 13.4073 178.039 12.818C179.027 12.2113 180.145 11.908 181.393 11.908C182.971 11.908 184.227 12.3673 185.163 13.286C186.099 14.2047 186.567 15.4787 186.567 17.108C186.567 17.8707 186.446 18.4773 186.203 18.928C185.961 19.3613 185.527 19.578 184.903 19.578H179.287C179.391 22.0913 180.466 23.348 182.511 23.348ZM181.237 13.702C180.7 13.702 180.249 14.0053 179.885 14.612C179.521 15.2013 179.322 16.198 179.287 17.602H181.913C182.191 17.602 182.373 17.5067 182.459 17.316C182.546 17.1253 182.589 16.8307 182.589 16.432C182.589 15.4093 182.468 14.6987 182.225 14.3C181.983 13.9013 181.653 13.702 181.237 13.702ZM193.508 19.006L194.704 23.556L195.9 19.006L196.914 15.47C196.984 15.1927 197.018 14.9847 197.018 14.846C197.018 14.482 196.897 14.2133 196.654 14.04C196.429 13.8493 196.1 13.754 195.666 13.754C195.666 13.0433 195.831 12.5233 196.16 12.194H201.204C201.551 12.5407 201.724 13.0607 201.724 13.754C201.291 13.754 200.962 13.858 200.736 14.066C200.511 14.274 200.32 14.6207 200.164 15.106L197.46 23.4C197.166 24.4227 196.836 25.142 196.472 25.558C196.108 25.974 195.554 26.182 194.808 26.182H192.104L187.996 15.106C187.806 14.6033 187.615 14.2567 187.424 14.066C187.234 13.858 186.922 13.754 186.488 13.754C186.488 13.078 186.67 12.558 187.034 12.194H192.962C193.153 12.3847 193.3 12.6273 193.404 12.922C193.508 13.1993 193.56 13.4767 193.56 13.754C193.196 13.754 192.902 13.858 192.676 14.066C192.451 14.2567 192.338 14.5427 192.338 14.924C192.338 15.0453 192.373 15.2273 192.442 15.47L193.508 19.006Z" fill="white"/>
<path d="M164.416 26.286C164.018 26.286 163.532 26.26 162.96 26.208C161.106 26.0693 159.476 26 158.072 26C157.691 25.5147 157.5 24.96 157.5 24.336C158.072 24.336 158.48 24.2407 158.722 24.05C158.982 23.842 159.112 23.4953 159.112 23.01V10.79C159.112 10.322 158.982 9.99267 158.722 9.802C158.48 9.594 158.072 9.49 157.5 9.49C157.5 8.83133 157.691 8.28533 158.072 7.852C159.39 7.852 160.577 7.81733 161.634 7.748C162.692 7.67867 163.316 7.63533 163.506 7.618C164.096 7.566 164.52 7.54 164.78 7.54C166.704 7.54 168.316 7.93867 169.616 8.736C170.934 9.53333 171.904 10.6167 172.528 11.986C173.17 13.338 173.49 14.8547 173.49 16.536C173.49 18.3907 173.161 20.0547 172.502 21.528C171.861 22.984 170.864 24.1453 169.512 25.012C168.16 25.8613 166.462 26.286 164.416 26.286ZM164.208 24.128C165.699 24.128 166.843 23.5647 167.64 22.438C168.455 21.294 168.862 19.4567 168.862 16.926C168.862 14.482 168.429 12.6533 167.562 11.44C166.713 10.2267 165.526 9.62 164 9.62C163.706 9.62 163.498 9.63733 163.376 9.672V24.076C163.55 24.1107 163.827 24.128 164.208 24.128Z" fill="#06D889"/>
<defs>
<linearGradient id="paint0_linear_5_102" x1="4.84974" y1="-0.790465" x2="39.3332" y2="31.1812" gradientUnits="userSpaceOnUse">
<stop stop-color="#06D889"/>
<stop offset="0.0625" stop-color="#06D889"/>
<stop offset="0.0664063" stop-color="#06D788"/>
<stop offset="0.0703125" stop-color="#06D687"/>
<stop offset="0.0742188" stop-color="#06D587"/>
<stop offset="0.078125" stop-color="#06D386"/>
<stop offset="0.0820312" stop-color="#06D285"/>
<stop offset="0.0859375" stop-color="#06D185"/>
<stop offset="0.0898438" stop-color="#06D084"/>
<stop offset="0.09375" stop-color="#06CF83"/>
<stop offset="0.0976563" stop-color="#06CE82"/>
<stop offset="0.101563" stop-color="#06CC82"/>
<stop offset="0.105469" stop-color="#06CB81"/>
<stop offset="0.109375" stop-color="#06CA80"/>
<stop offset="0.113281" stop-color="#06C97F"/>
<stop offset="0.117188" stop-color="#06C87F"/>
<stop offset="0.121094" stop-color="#06C77E"/>
<stop offset="0.125" stop-color="#06C67D"/>
<stop offset="0.128906" stop-color="#06C47C"/>
<stop offset="0.132813" stop-color="#06C37C"/>
<stop offset="0.136719" stop-color="#06C27B"/>
<stop offset="0.140625" stop-color="#06C17A"/>
<stop offset="0.144531" stop-color="#06C07A"/>
<stop offset="0.148438" stop-color="#06BF79"/>
<stop offset="0.152344" stop-color="#05BE78"/>
<stop offset="0.15625" stop-color="#05BC77"/>
<stop offset="0.160156" stop-color="#05BB77"/>
<stop offset="0.164063" stop-color="#05BA76"/>
<stop offset="0.167969" stop-color="#05B975"/>
<stop offset="0.171875" stop-color="#05B874"/>
<stop offset="0.175781" stop-color="#05B774"/>
<stop offset="0.179688" stop-color="#05B673"/>
<stop offset="0.183594" stop-color="#05B472"/>
<stop offset="0.1875" stop-color="#05B372"/>
<stop offset="0.191406" stop-color="#05B271"/>
<stop offset="0.195313" stop-color="#05B170"/>
<stop offset="0.199219" stop-color="#05B06F"/>
<stop offset="0.203125" stop-color="#05AF6F"/>
<stop offset="0.207031" stop-color="#05AD6E"/>
<stop offset="0.210938" stop-color="#05AC6D"/>
<stop offset="0.214844" stop-color="#05AB6C"/>
<stop offset="0.21875" stop-color="#05AA6C"/>
<stop offset="0.222656" stop-color="#05A96B"/>
<stop offset="0.226563" stop-color="#05A86A"/>
<stop offset="0.230469" stop-color="#05A76A"/>
<stop offset="0.234375" stop-color="#05A569"/>
<stop offset="0.238281" stop-color="#05A468"/>
<stop offset="0.242188" stop-color="#05A367"/>
<stop offset="0.246094" stop-color="#05A267"/>
<stop offset="0.25" stop-color="#05A166"/>
<stop offset="0.253906" stop-color="#05A065"/>
<stop offset="0.257812" stop-color="#059F64"/>
<stop offset="0.261719" stop-color="#059D64"/>
<stop offset="0.265625" stop-color="#059C63"/>
<stop offset="0.269531" stop-color="#059B62"/>
<stop offset="0.273438" stop-color="#059A61"/>
<stop offset="0.277344" stop-color="#059961"/>
<stop offset="0.28125" stop-color="#059860"/>
<stop offset="0.285156" stop-color="#05975F"/>
<stop offset="0.289062" stop-color="#05955F"/>
<stop offset="0.292969" stop-color="#04945E"/>
<stop offset="0.296875" stop-color="#04935D"/>
<stop offset="0.300781" stop-color="#04925C"/>
<stop offset="0.304688" stop-color="#04915C"/>
<stop offset="0.308594" stop-color="#04905B"/>
<stop offset="0.3125" stop-color="#048F5A"/>
<stop offset="0.316406" stop-color="#048D59"/>
<stop offset="0.320312" stop-color="#048C59"/>
<stop offset="0.324219" stop-color="#048B58"/>
<stop offset="0.328125" stop-color="#048A57"/>
<stop offset="0.332031" stop-color="#048957"/>
<stop offset="0.335938" stop-color="#048856"/>
<stop offset="0.339844" stop-color="#048655"/>
<stop offset="0.34375" stop-color="#048554"/>
<stop offset="0.347656" stop-color="#048454"/>
<stop offset="0.351563" stop-color="#048353"/>
<stop offset="0.355469" stop-color="#048252"/>
<stop offset="0.359375" stop-color="#048151"/>
<stop offset="0.363281" stop-color="#048051"/>
<stop offset="0.367188" stop-color="#047E50"/>
<stop offset="0.371094" stop-color="#047D4F"/>
<stop offset="0.375" stop-color="#047C4E"/>
<stop offset="0.378906" stop-color="#047B4E"/>
<stop offset="0.382813" stop-color="#047A4D"/>
<stop offset="0.386719" stop-color="#04794C"/>
<stop offset="0.390625" stop-color="#04784C"/>
<stop offset="0.394531" stop-color="#04764B"/>
<stop offset="0.398438" stop-color="#04754A"/>
<stop offset="0.402344" stop-color="#047449"/>
<stop offset="0.40625" stop-color="#047349"/>
<stop offset="0.410156" stop-color="#047248"/>
<stop offset="0.414063" stop-color="#047147"/>
<stop offset="0.417969" stop-color="#047046"/>
<stop offset="0.421875" stop-color="#046E46"/>
<stop offset="0.425781" stop-color="#046D45"/>
<stop offset="0.429688" stop-color="#046C44"/>
<stop offset="0.433594" stop-color="#036B44"/>
<stop offset="0.4375" stop-color="#036A43"/>
<stop offset="0.441406" stop-color="#036942"/>
<stop offset="0.445313" stop-color="#036841"/>
<stop offset="0.449219" stop-color="#036641"/>
<stop offset="0.453125" stop-color="#036540"/>
<stop offset="0.457031" stop-color="#03643F"/>
<stop offset="0.460938" stop-color="#03633E"/>
<stop offset="0.464844" stop-color="#03623E"/>
<stop offset="0.46875" stop-color="#03613D"/>
<stop offset="0.472656" stop-color="#035F3C"/>
<stop offset="0.476563" stop-color="#035E3B"/>
<stop offset="0.480469" stop-color="#035D3B"/>
<stop offset="0.484375" stop-color="#035C3A"/>
<stop offset="0.488281" stop-color="#035B39"/>
<stop offset="0.492188" stop-color="#035A39"/>
<stop offset="0.5" stop-color="#035A39"/>
<stop offset="0.503906" stop-color="#035C3A"/>
<stop offset="0.507813" stop-color="#035D3A"/>
<stop offset="0.511719" stop-color="#035E3B"/>
<stop offset="0.515625" stop-color="#035F3C"/>
<stop offset="0.519531" stop-color="#03603D"/>
<stop offset="0.523438" stop-color="#03613D"/>
<stop offset="0.527344" stop-color="#03623E"/>
<stop offset="0.53125" stop-color="#03633F"/>
<stop offset="0.535156" stop-color="#03653F"/>
<stop offset="0.539063" stop-color="#036640"/>
<stop offset="0.542969" stop-color="#036741"/>
<stop offset="0.546875" stop-color="#036842"/>
<stop offset="0.550781" stop-color="#036942"/>
<stop offset="0.554688" stop-color="#036A43"/>
<stop offset="0.558594" stop-color="#036B44"/>
<stop offset="0.5625" stop-color="#046C44"/>
<stop offset="0.566406" stop-color="#046E45"/>
<stop offset="0.570312" stop-color="#046F46"/>
<stop offset="0.574219" stop-color="#047047"/>
<stop offset="0.578125" stop-color="#047147"/>
<stop offset="0.582031" stop-color="#047248"/>
<stop offset="0.585938" stop-color="#047349"/>
<stop offset="0.589844" stop-color="#047449"/>
<stop offset="0.59375" stop-color="#04754A"/>
<stop offset="0.597656" stop-color="#04774B"/>
<stop offset="0.601562" stop-color="#04784C"/>
<stop offset="0.605469" stop-color="#04794C"/>
<stop offset="0.609375" stop-color="#047A4D"/>
<stop offset="0.613281" stop-color="#047B4E"/>
<stop offset="0.617188" stop-color="#047C4E"/>
<stop offset="0.621094" stop-color="#047D4F"/>
<stop offset="0.625" stop-color="#047E50"/>
<stop offset="0.628906" stop-color="#047F51"/>
<stop offset="0.632812" stop-color="#048151"/>
<stop offset="0.636719" stop-color="#048252"/>
<stop offset="0.640625" stop-color="#048353"/>
<stop offset="0.644531" stop-color="#048453"/>
<stop offset="0.648438" stop-color="#048554"/>
<stop offset="0.652344" stop-color="#048655"/>
<stop offset="0.65625" stop-color="#048756"/>
<stop offset="0.660156" stop-color="#048856"/>
<stop offset="0.664062" stop-color="#048A57"/>
<stop offset="0.667969" stop-color="#048B58"/>
<stop offset="0.671875" stop-color="#048C58"/>
<stop offset="0.675781" stop-color="#048D59"/>
<stop offset="0.679688" stop-color="#048E5A"/>
<stop offset="0.683594" stop-color="#048F5B"/>
<stop offset="0.6875" stop-color="#04905B"/>
<stop offset="0.691406" stop-color="#04915C"/>
<stop offset="0.695313" stop-color="#04935D"/>
<stop offset="0.699219" stop-color="#04945D"/>
<stop offset="0.703125" stop-color="#04955E"/>
<stop offset="0.707031" stop-color="#05965F"/>
<stop offset="0.710938" stop-color="#059760"/>
<stop offset="0.714844" stop-color="#059860"/>
<stop offset="0.71875" stop-color="#059961"/>
<stop offset="0.722656" stop-color="#059A62"/>
<stop offset="0.726563" stop-color="#059B62"/>
<stop offset="0.730469" stop-color="#059D63"/>
<stop offset="0.734375" stop-color="#059E64"/>
<stop offset="0.738281" stop-color="#059F65"/>
<stop offset="0.742188" stop-color="#05A065"/>
<stop offset="0.746094" stop-color="#05A166"/>
<stop offset="0.75" stop-color="#05A267"/>
<stop offset="0.753906" stop-color="#05A367"/>
<stop offset="0.757813" stop-color="#05A468"/>
<stop offset="0.761719" stop-color="#05A669"/>
<stop offset="0.765625" stop-color="#05A76A"/>
<stop offset="0.769531" stop-color="#05A86A"/>
<stop offset="0.773438" stop-color="#05A96B"/>
<stop offset="0.777344" stop-color="#05AA6C"/>
<stop offset="0.78125" stop-color="#05AB6C"/>
<stop offset="0.785156" stop-color="#05AC6D"/>
<stop offset="0.789063" stop-color="#05AD6E"/>
<stop offset="0.792969" stop-color="#05AF6F"/>
<stop offset="0.796875" stop-color="#05B06F"/>
<stop offset="0.800781" stop-color="#05B170"/>
<stop offset="0.804688" stop-color="#05B271"/>
<stop offset="0.808594" stop-color="#05B371"/>
<stop offset="0.8125" stop-color="#05B472"/>
<stop offset="0.816406" stop-color="#05B573"/>
<stop offset="0.820313" stop-color="#05B674"/>
<stop offset="0.824219" stop-color="#05B774"/>
<stop offset="0.828125" stop-color="#05B975"/>
<stop offset="0.832031" stop-color="#05BA76"/>
<stop offset="0.835938" stop-color="#05BB76"/>
<stop offset="0.839844" stop-color="#05BC77"/>
<stop offset="0.84375" stop-color="#05BD78"/>
<stop offset="0.847656" stop-color="#05BE79"/>
<stop offset="0.851563" stop-color="#06BF79"/>
<stop offset="0.855469" stop-color="#06C07A"/>
<stop offset="0.859375" stop-color="#06C27B"/>
<stop offset="0.863281" stop-color="#06C37B"/>
<stop offset="0.867188" stop-color="#06C47C"/>
<stop offset="0.871094" stop-color="#06C57D"/>
<stop offset="0.875" stop-color="#06C67E"/>
<stop offset="0.878906" stop-color="#06C77E"/>
<stop offset="0.882813" stop-color="#06C87F"/>
<stop offset="0.886719" stop-color="#06C980"/>
<stop offset="0.890625" stop-color="#06CB80"/>
<stop offset="0.894531" stop-color="#06CC81"/>
<stop offset="0.898438" stop-color="#06CD82"/>
<stop offset="0.902344" stop-color="#06CE82"/>
<stop offset="0.90625" stop-color="#06CF83"/>
<stop offset="0.910156" stop-color="#06D084"/>
<stop offset="0.914062" stop-color="#06D185"/>
<stop offset="0.917969" stop-color="#06D285"/>
<stop offset="0.921875" stop-color="#06D386"/>
<stop offset="0.925781" stop-color="#06D587"/>
<stop offset="0.929688" stop-color="#06D687"/>
<stop offset="0.933594" stop-color="#06D788"/>
<stop offset="0.9375" stop-color="#06D889"/>
<stop offset="1" stop-color="#06D889"/>
</linearGradient>
<linearGradient id="paint1_linear_5_102" x1="32.6857" y1="20.5975" x2="-10.8571" y2="22.0881" gradientUnits="userSpaceOnUse">
<stop stop-color="#05955E"/>
<stop offset="0.00390625" stop-color="#04945E"/>
<stop offset="0.0078125" stop-color="#04935D"/>
<stop offset="0.0117188" stop-color="#04925C"/>
<stop offset="0.015625" stop-color="#04915C"/>
<stop offset="0.0195312" stop-color="#04905B"/>
<stop offset="0.0234375" stop-color="#048F5B"/>
<stop offset="0.0273437" stop-color="#048E5A"/>
<stop offset="0.03125" stop-color="#048D59"/>
<stop offset="0.0351562" stop-color="#048C59"/>
<stop offset="0.0390625" stop-color="#048B58"/>
<stop offset="0.0429687" stop-color="#048A57"/>
<stop offset="0.046875" stop-color="#048957"/>
<stop offset="0.0507813" stop-color="#048856"/>
<stop offset="0.0546875" stop-color="#048755"/>
<stop offset="0.0585938" stop-color="#048655"/>
<stop offset="0.0625" stop-color="#048554"/>
<stop offset="0.0664062" stop-color="#048454"/>
<stop offset="0.0703125" stop-color="#048353"/>
<stop offset="0.0742187" stop-color="#048252"/>
<stop offset="0.078125" stop-color="#048152"/>
<stop offset="0.0820313" stop-color="#048051"/>
<stop offset="0.0859375" stop-color="#047F50"/>
<stop offset="0.0898438" stop-color="#047E50"/>
<stop offset="0.09375" stop-color="#047D4F"/>
<stop offset="0.0976562" stop-color="#047C4E"/>
<stop offset="0.101562" stop-color="#047B4E"/>
<stop offset="0.105469" stop-color="#047A4D"/>
<stop offset="0.109375" stop-color="#04794D"/>
<stop offset="0.113281" stop-color="#04784C"/>
<stop offset="0.117188" stop-color="#04774B"/>
<stop offset="0.121094" stop-color="#04764B"/>
<stop offset="0.125" stop-color="#04754A"/>
<stop offset="0.128906" stop-color="#047449"/>
<stop offset="0.132812" stop-color="#047349"/>
<stop offset="0.136719" stop-color="#047248"/>
<stop offset="0.140625" stop-color="#047147"/>
<stop offset="0.144531" stop-color="#047047"/>
<stop offset="0.148438" stop-color="#046F46"/>
<stop offset="0.152344" stop-color="#046E45"/>
<stop offset="0.15625" stop-color="#046D45"/>
<stop offset="0.160156" stop-color="#046C44"/>
<stop offset="0.164063" stop-color="#036B44"/>
<stop offset="0.167969" stop-color="#036A43"/>
<stop offset="0.171875" stop-color="#036942"/>
<stop offset="0.175781" stop-color="#036842"/>
<stop offset="0.179687" stop-color="#036741"/>
<stop offset="0.183594" stop-color="#036640"/>
<stop offset="0.1875" stop-color="#036540"/>
<stop offset="0.191406" stop-color="#03643F"/>
<stop offset="0.195313" stop-color="#03633E"/>
<stop offset="0.199219" stop-color="#03623E"/>
<stop offset="0.203125" stop-color="#03613D"/>
<stop offset="0.207031" stop-color="#03603D"/>
<stop offset="0.210938" stop-color="#035F3C"/>
<stop offset="0.214844" stop-color="#035E3B"/>
<stop offset="0.21875" stop-color="#035D3B"/>
<stop offset="0.222656" stop-color="#035C3A"/>
<stop offset="0.226562" stop-color="#035B39"/>
<stop offset="0.230469" stop-color="#035A39"/>
<stop offset="0.234375" stop-color="#035938"/>
<stop offset="0.238281" stop-color="#035A39"/>
<stop offset="0.242188" stop-color="#035B39"/>
<stop offset="0.246094" stop-color="#035C3A"/>
<stop offset="0.25" stop-color="#035D3B"/>
<stop offset="0.253906" stop-color="#035E3B"/>
<stop offset="0.257812" stop-color="#035F3C"/>
<stop offset="0.261719" stop-color="#03603C"/>
<stop offset="0.265625" stop-color="#03613D"/>
<stop offset="0.269531" stop-color="#03623E"/>
<stop offset="0.273437" stop-color="#03633E"/>
<stop offset="0.277344" stop-color="#03643F"/>
<stop offset="0.28125" stop-color="#036540"/>
<stop offset="0.285156" stop-color="#036640"/>
<stop offset="0.289063" stop-color="#036741"/>
<stop offset="0.292969" stop-color="#036841"/>
<stop offset="0.296875" stop-color="#036942"/>
<stop offset="0.300781" stop-color="#036A43"/>
<stop offset="0.304688" stop-color="#036B43"/>
<stop offset="0.308594" stop-color="#046C44"/>
<stop offset="0.3125" stop-color="#046D45"/>
<stop offset="0.316406" stop-color="#046E45"/>
<stop offset="0.320312" stop-color="#046F46"/>
<stop offset="0.324219" stop-color="#047046"/>
<stop offset="0.328125" stop-color="#047047"/>
<stop offset="0.332031" stop-color="#047148"/>
<stop offset="0.335938" stop-color="#047248"/>
<stop offset="0.339844" stop-color="#047349"/>
<stop offset="0.34375" stop-color="#04744A"/>
<stop offset="0.347656" stop-color="#04754A"/>
<stop offset="0.351563" stop-color="#04764B"/>
<stop offset="0.355469" stop-color="#04774B"/>
<stop offset="0.359375" stop-color="#04784C"/>
<stop offset="0.363281" stop-color="#04794D"/>
<stop offset="0.367188" stop-color="#047A4D"/>
<stop offset="0.371094" stop-color="#047B4E"/>
<stop offset="0.375" stop-color="#047C4F"/>
<stop offset="0.378906" stop-color="#047D4F"/>
<stop offset="0.382813" stop-color="#047E50"/>
<stop offset="0.386719" stop-color="#047F50"/>
<stop offset="0.390625" stop-color="#048051"/>
<stop offset="0.394531" stop-color="#048152"/>
<stop offset="0.398438" stop-color="#048252"/>
<stop offset="0.402344" stop-color="#048353"/>
<stop offset="0.40625" stop-color="#048454"/>
<stop offset="0.410156" stop-color="#048554"/>
<stop offset="0.414063" stop-color="#048655"/>
<stop offset="0.417969" stop-color="#048755"/>
<stop offset="0.421875" stop-color="#048856"/>
<stop offset="0.425781" stop-color="#048957"/>
<stop offset="0.429688" stop-color="#048A57"/>
<stop offset="0.433594" stop-color="#048B58"/>
<stop offset="0.4375" stop-color="#048C58"/>
<stop offset="0.441406" stop-color="#048D59"/>
<stop offset="0.445313" stop-color="#048E5A"/>
<stop offset="0.449219" stop-color="#048F5A"/>
<stop offset="0.453125" stop-color="#04905B"/>
<stop offset="0.457031" stop-color="#04915C"/>
<stop offset="0.460938" stop-color="#04925C"/>
<stop offset="0.464844" stop-color="#04935D"/>
<stop offset="0.46875" stop-color="#04945D"/>
<stop offset="0.472656" stop-color="#04955E"/>
<stop offset="0.476562" stop-color="#05965F"/>
<stop offset="0.480469" stop-color="#05975F"/>
<stop offset="0.484375" stop-color="#059860"/>
<stop offset="0.488281" stop-color="#059961"/>
<stop offset="0.492187" stop-color="#059A61"/>
<stop offset="0.496094" stop-color="#059B62"/>
<stop offset="0.5" stop-color="#059C62"/>
<stop offset="0.503906" stop-color="#059D63"/>
<stop offset="0.507813" stop-color="#059E64"/>
<stop offset="0.511719" stop-color="#059E64"/>
<stop offset="0.515625" stop-color="#059F65"/>
<stop offset="0.519531" stop-color="#05A066"/>
<stop offset="0.523438" stop-color="#05A166"/>
<stop offset="0.527344" stop-color="#05A267"/>
<stop offset="0.53125" stop-color="#05A367"/>
<stop offset="0.535156" stop-color="#05A468"/>
<stop offset="0.539062" stop-color="#05A569"/>
<stop offset="0.542969" stop-color="#05A669"/>
<stop offset="0.546875" stop-color="#05A76A"/>
<stop offset="0.550781" stop-color="#05A86B"/>
<stop offset="0.554688" stop-color="#05A96B"/>
<stop offset="0.558594" stop-color="#05AA6C"/>
<stop offset="0.5625" stop-color="#05AB6C"/>
<stop offset="0.566406" stop-color="#05AC6D"/>
<stop offset="0.570312" stop-color="#05AD6E"/>
<stop offset="0.574219" stop-color="#05AE6E"/>
<stop offset="0.578125" stop-color="#05AF6F"/>
<stop offset="0.582031" stop-color="#05B070"/>
<stop offset="0.585937" stop-color="#05B170"/>
<stop offset="0.589844" stop-color="#05B271"/>
<stop offset="0.59375" stop-color="#05B371"/>
<stop offset="0.597656" stop-color="#05B472"/>
<stop offset="0.601562" stop-color="#05B573"/>
<stop offset="0.605469" stop-color="#05B673"/>
<stop offset="0.609375" stop-color="#05B774"/>
<stop offset="0.613281" stop-color="#05B875"/>
<stop offset="0.617188" stop-color="#05B975"/>
<stop offset="0.621094" stop-color="#05BA76"/>
<stop offset="0.625" stop-color="#05BB76"/>
<stop offset="0.628906" stop-color="#05BC77"/>
<stop offset="0.632812" stop-color="#05BD78"/>
<stop offset="0.636719" stop-color="#05BE78"/>
<stop offset="0.640625" stop-color="#06BF79"/>
<stop offset="0.644531" stop-color="#06C07A"/>
<stop offset="0.648437" stop-color="#06C17A"/>
<stop offset="0.652344" stop-color="#06C27B"/>
<stop offset="0.65625" stop-color="#06C37B"/>
<stop offset="0.660156" stop-color="#06C47C"/>
<stop offset="0.664063" stop-color="#06C57D"/>
<stop offset="0.667969" stop-color="#06C67D"/>
<stop offset="0.671875" stop-color="#06C77E"/>
<stop offset="0.675781" stop-color="#06C87E"/>
<stop offset="0.679688" stop-color="#06C97F"/>
<stop offset="0.683594" stop-color="#06CA80"/>
<stop offset="0.6875" stop-color="#06CB80"/>
<stop offset="0.691406" stop-color="#06CB81"/>
<stop offset="0.695312" stop-color="#06CC82"/>
<stop offset="0.699219" stop-color="#06CD82"/>
<stop offset="0.703125" stop-color="#06CE83"/>
<stop offset="0.707031" stop-color="#06CF83"/>
<stop offset="0.710938" stop-color="#06D084"/>
<stop offset="0.714844" stop-color="#06D185"/>
<stop offset="0.71875" stop-color="#06D285"/>
<stop offset="0.722656" stop-color="#06D386"/>
<stop offset="0.726563" stop-color="#06D487"/>
<stop offset="0.730469" stop-color="#06D587"/>
<stop offset="0.734375" stop-color="#06D688"/>
<stop offset="0.738281" stop-color="#06D788"/>
<stop offset="0.742188" stop-color="#06D889"/>
<stop offset="0.75" stop-color="#06D889"/>
<stop offset="1" stop-color="#06D889"/>
</linearGradient>
<linearGradient id="paint2_linear_5_102" x1="52.8233" y1="11.271" x2="9.28055" y2="12.7617" gradientUnits="userSpaceOnUse">
<stop stop-color="#06D889"/>
<stop offset="0.125" stop-color="#06D889"/>
<stop offset="0.1875" stop-color="#06D889"/>
<stop offset="0.203125" stop-color="#06D889"/>
<stop offset="0.210938" stop-color="#06D889"/>
<stop offset="0.214844" stop-color="#06D688"/>
<stop offset="0.21875" stop-color="#06D587"/>
<stop offset="0.222656" stop-color="#06D487"/>
<stop offset="0.226562" stop-color="#06D386"/>
<stop offset="0.230469" stop-color="#06D285"/>
<stop offset="0.234375" stop-color="#06D185"/>
<stop offset="0.238281" stop-color="#06D084"/>
<stop offset="0.242188" stop-color="#06CF83"/>
<stop offset="0.246094" stop-color="#06CE83"/>
<stop offset="0.25" stop-color="#06CD82"/>
<stop offset="0.253906" stop-color="#06CC82"/>
<stop offset="0.257812" stop-color="#06CB81"/>
<stop offset="0.261719" stop-color="#06CA80"/>
<stop offset="0.265625" stop-color="#06C980"/>
<stop offset="0.269531" stop-color="#06C87F"/>
<stop offset="0.273438" stop-color="#06C77E"/>
<stop offset="0.277344" stop-color="#06C67E"/>
<stop offset="0.28125" stop-color="#06C57D"/>
<stop offset="0.285156" stop-color="#06C47C"/>
<stop offset="0.289062" stop-color="#06C37C"/>
<stop offset="0.292969" stop-color="#06C27B"/>
<stop offset="0.296875" stop-color="#06C17B"/>
<stop offset="0.300781" stop-color="#06C07A"/>
<stop offset="0.304688" stop-color="#06BF79"/>
<stop offset="0.308594" stop-color="#05BE79"/>
<stop offset="0.3125" stop-color="#05BD78"/>
<stop offset="0.316406" stop-color="#05BC77"/>
<stop offset="0.320312" stop-color="#05BB77"/>
<stop offset="0.324219" stop-color="#05BA76"/>
<stop offset="0.328125" stop-color="#05B975"/>
<stop offset="0.332031" stop-color="#05B875"/>
<stop offset="0.335938" stop-color="#05B774"/>
<stop offset="0.339844" stop-color="#05B674"/>
<stop offset="0.34375" stop-color="#05B573"/>
<stop offset="0.347656" stop-color="#05B472"/>
<stop offset="0.351562" stop-color="#05B372"/>
<stop offset="0.355469" stop-color="#05B271"/>
<stop offset="0.359375" stop-color="#05B170"/>
<stop offset="0.363281" stop-color="#05B070"/>
<stop offset="0.367188" stop-color="#05AF6F"/>
<stop offset="0.371094" stop-color="#05AE6E"/>
<stop offset="0.375" stop-color="#05AD6E"/>
<stop offset="0.378906" stop-color="#05AC6D"/>
<stop offset="0.382813" stop-color="#05AB6C"/>
<stop offset="0.386719" stop-color="#05AA6C"/>
<stop offset="0.390625" stop-color="#05A96B"/>
<stop offset="0.394531" stop-color="#05A86B"/>
<stop offset="0.398438" stop-color="#05A76A"/>
<stop offset="0.402344" stop-color="#05A669"/>
<stop offset="0.40625" stop-color="#05A569"/>
<stop offset="0.410156" stop-color="#05A468"/>
<stop offset="0.414063" stop-color="#05A367"/>
<stop offset="0.417969" stop-color="#05A267"/>
<stop offset="0.421875" stop-color="#05A166"/>
<stop offset="0.425781" stop-color="#05A065"/>
<stop offset="0.429688" stop-color="#059F65"/>
<stop offset="0.433594" stop-color="#059E64"/>
<stop offset="0.4375" stop-color="#059D64"/>
<stop offset="0.441406" stop-color="#059C63"/>
<stop offset="0.445313" stop-color="#059B62"/>
<stop offset="0.449219" stop-color="#059A62"/>
<stop offset="0.453125" stop-color="#059961"/>
<stop offset="0.457031" stop-color="#059860"/>
<stop offset="0.460938" stop-color="#059760"/>
<stop offset="0.464844" stop-color="#05965F"/>
<stop offset="0.46875" stop-color="#05955E"/>
<stop offset="0.472656" stop-color="#04945E"/>
<stop offset="0.476562" stop-color="#04935D"/>
<stop offset="0.480469" stop-color="#04925D"/>
<stop offset="0.484375" stop-color="#04915C"/>
<stop offset="0.488281" stop-color="#04905B"/>
<stop offset="0.492188" stop-color="#048F5B"/>
<stop offset="0.496094" stop-color="#048E5A"/>
<stop offset="0.5" stop-color="#048D59"/>
<stop offset="0.503906" stop-color="#048C59"/>
<stop offset="0.507812" stop-color="#048B58"/>
<stop offset="0.511719" stop-color="#048A57"/>
<stop offset="0.515625" stop-color="#048957"/>
<stop offset="0.519531" stop-color="#048856"/>
<stop offset="0.523438" stop-color="#048756"/>
<stop offset="0.527344" stop-color="#048655"/>
<stop offset="0.53125" stop-color="#048554"/>
<stop offset="0.535156" stop-color="#048454"/>
<stop offset="0.539062" stop-color="#048353"/>
<stop offset="0.542969" stop-color="#048252"/>
<stop offset="0.546875" stop-color="#048152"/>
<stop offset="0.550781" stop-color="#048051"/>
<stop offset="0.554688" stop-color="#047F50"/>
<stop offset="0.558594" stop-color="#047E50"/>
<stop offset="0.5625" stop-color="#047D4F"/>
<stop offset="0.566406" stop-color="#047C4E"/>
<stop offset="0.570312" stop-color="#047B4E"/>
<stop offset="0.574219" stop-color="#047A4D"/>
<stop offset="0.578125" stop-color="#04794D"/>
<stop offset="0.582031" stop-color="#04784C"/>
<stop offset="0.585938" stop-color="#04774B"/>
<stop offset="0.589844" stop-color="#04764B"/>
<stop offset="0.59375" stop-color="#04754A"/>
<stop offset="0.597656" stop-color="#047449"/>
<stop offset="0.601563" stop-color="#047349"/>
<stop offset="0.605469" stop-color="#047248"/>
<stop offset="0.609375" stop-color="#047147"/>
<stop offset="0.613281" stop-color="#047047"/>
<stop offset="0.617188" stop-color="#046F46"/>
<stop offset="0.621094" stop-color="#046E46"/>
<stop offset="0.625" stop-color="#046D45"/>
<stop offset="0.628906" stop-color="#046C44"/>
<stop offset="0.632812" stop-color="#036B44"/>
<stop offset="0.636719" stop-color="#036A43"/>
<stop offset="0.640625" stop-color="#036942"/>
<stop offset="0.644531" stop-color="#036842"/>
<stop offset="0.648438" stop-color="#036741"/>
<stop offset="0.652344" stop-color="#036640"/>
<stop offset="0.65625" stop-color="#036540"/>
<stop offset="0.660156" stop-color="#03643F"/>
<stop offset="0.664062" stop-color="#03633F"/>
<stop offset="0.667969" stop-color="#03623E"/>
<stop offset="0.671875" stop-color="#03613D"/>
<stop offset="0.675781" stop-color="#03603D"/>
<stop offset="0.679688" stop-color="#035F3C"/>
<stop offset="0.683594" stop-color="#035E3B"/>
<stop offset="0.6875" stop-color="#035D3B"/>
<stop offset="0.691406" stop-color="#035C3A"/>
<stop offset="0.695312" stop-color="#035B39"/>
<stop offset="0.699219" stop-color="#035A39"/>
<stop offset="0.703125" stop-color="#035938"/>
<stop offset="0.707031" stop-color="#035A39"/>
<stop offset="0.710938" stop-color="#035B39"/>
<stop offset="0.714844" stop-color="#035C3A"/>
<stop offset="0.71875" stop-color="#035D3B"/>
<stop offset="0.722656" stop-color="#035E3B"/>
<stop offset="0.726562" stop-color="#035F3C"/>
<stop offset="0.730469" stop-color="#03603C"/>
<stop offset="0.734375" stop-color="#03613D"/>
<stop offset="0.738281" stop-color="#03623E"/>
<stop offset="0.742188" stop-color="#03633E"/>
<stop offset="0.746094" stop-color="#03643F"/>
<stop offset="0.75" stop-color="#036540"/>
<stop offset="0.753906" stop-color="#036640"/>
<stop offset="0.757813" stop-color="#036741"/>
<stop offset="0.761719" stop-color="#036841"/>
<stop offset="0.765625" stop-color="#036942"/>
<stop offset="0.769531" stop-color="#036A43"/>
<stop offset="0.773438" stop-color="#036A43"/>
<stop offset="0.777344" stop-color="#046B44"/>
<stop offset="0.78125" stop-color="#046C44"/>
<stop offset="0.785156" stop-color="#046D45"/>
<stop offset="0.789063" stop-color="#046E46"/>
<stop offset="0.792969" stop-color="#046F46"/>
<stop offset="0.796875" stop-color="#047047"/>
<stop offset="0.800781" stop-color="#047148"/>
<stop offset="0.804688" stop-color="#047248"/>
<stop offset="0.808594" stop-color="#047349"/>
<stop offset="0.8125" stop-color="#047449"/>
<stop offset="0.816406" stop-color="#04754A"/>
<stop offset="0.820313" stop-color="#04764B"/>
<stop offset="0.824219" stop-color="#04774B"/>
<stop offset="0.828125" stop-color="#04784C"/>
<stop offset="0.832031" stop-color="#04794D"/>
<stop offset="0.835938" stop-color="#047A4D"/>
<stop offset="0.839844" stop-color="#047B4E"/>
<stop offset="0.84375" stop-color="#047C4E"/>
<stop offset="0.847656" stop-color="#047D4F"/>
<stop offset="0.851563" stop-color="#047E50"/>
<stop offset="0.855469" stop-color="#047F50"/>
<stop offset="0.859375" stop-color="#048051"/>
<stop offset="0.863281" stop-color="#048152"/>
<stop offset="0.867188" stop-color="#048252"/>
<stop offset="0.871094" stop-color="#048353"/>
<stop offset="0.875" stop-color="#048453"/>
<stop offset="0.878906" stop-color="#048554"/>
<stop offset="0.882812" stop-color="#048655"/>
<stop offset="0.886719" stop-color="#048755"/>
<stop offset="0.890625" stop-color="#048856"/>
<stop offset="0.894531" stop-color="#048957"/>
<stop offset="0.898437" stop-color="#048A57"/>
<stop offset="0.902344" stop-color="#048B58"/>
<stop offset="0.90625" stop-color="#048C58"/>
<stop offset="0.910156" stop-color="#048D59"/>
<stop offset="0.914062" stop-color="#048E5A"/>
<stop offset="0.917969" stop-color="#048F5A"/>
<stop offset="0.921875" stop-color="#04905B"/>
<stop offset="0.925781" stop-color="#04915C"/>
<stop offset="0.929688" stop-color="#04925C"/>
<stop offset="0.933594" stop-color="#04935D"/>
<stop offset="0.9375" stop-color="#04945D"/>
<stop offset="0.941406" stop-color="#04955E"/>
<stop offset="0.945312" stop-color="#05965F"/>
<stop offset="0.949219" stop-color="#05975F"/>
<stop offset="0.953125" stop-color="#059860"/>
<stop offset="0.957031" stop-color="#059861"/>
<stop offset="0.960938" stop-color="#059961"/>
<stop offset="0.964844" stop-color="#059A62"/>
<stop offset="0.96875" stop-color="#059B62"/>
<stop offset="0.972656" stop-color="#059C63"/>
<stop offset="0.976562" stop-color="#059D64"/>
<stop offset="0.980469" stop-color="#059E64"/>
<stop offset="0.984375" stop-color="#059F65"/>
<stop offset="0.988281" stop-color="#05A065"/>
<stop offset="0.992188" stop-color="#05A166"/>
<stop offset="0.996094" stop-color="#05A267"/>
<stop offset="1" stop-color="#05A367"/>
</linearGradient>
</defs>
</svg>
